<svg id="visual" viewBox="0 0 900 600" width="900" height="600" xmlns="http://www.w3.org/2000/svg" xmlns:xlink="http://www.w3.org/1999/xlink" version="1.1"><path d="M0 43L30 40C60 37 120 31 180 27C240 23 300 21 360 21C420 21 480 23 540 19.8C600 16.7 660 8.3 720 9.3C780 10.3 840 20.7 870 25.8L900 31L900 0L870 0C840 0 780 0 720 0C660 0 600 0 540 0C480 0 420 0 360 0C300 0 240 0 180 0C120 0 60 0 30 0L0 0Z" fill="#004cbb"></path><path d="M0 103L30 103C60 103 120 103 180 99C240 95 300 87 360 74C420 61 480 43 540 32C600 21 660 17 720 18C780 19 840 25 870 28L900 31L900 29L870 24.2C840 19.3 780 9.7 720 8.7C660 7.7 600 15.3 540 18.2C480 21 420 19 360 19C300 19 240 21 180 25C120 29 60 35 30 38L0 41Z" fill="#0051c7"></path><path d="M0 223L30 211C60 199 120 175 180 175C240 175 300 199 360 178C420 157 480 91 540 85C600 79 660 133 720 152C780 171 840 155 870 147L900 139L900 29L870 26C840 23 780 17 720 16C660 15 600 19 540 30C480 41 420 59 360 72C300 85 240 93 180 97C120 101 60 101 30 101L0 101Z" fill="#0055d3"></path><path d="M0 259L30 249C60 239 120 219 180 216C240 213 300 227 360 198C420 169 480 97 540 93C600 89 660 153 720 179C780 205 840 193 870 187L900 181L900 137L870 145C840 153 780 169 720 150C660 131 600 77 540 83C480 89 420 155 360 176C300 197 240 173 180 173C120 173 60 197 30 209L0 221Z" fill="#005ae0"></path><path d="M0 271L30 260C60 249 120 227 180 224C240 221 300 237 360 213C420 189 480 125 540 126C600 127 660 193 720 221C780 249 840 239 870 234L900 229L900 179L870 185C840 191 780 203 720 177C660 151 600 87 540 91C480 95 420 167 360 196C300 225 240 211 180 214C120 217 60 237 30 247L0 257Z" fill="#005fec"></path><path d="M0 367L30 362C60 357 120 347 180 329C240 311 300 285 360 263C420 241 480 223 540 247C600 271 660 337 720 342C780 347 840 291 870 263L900 235L900 227L870 232C840 237 780 247 720 219C660 191 600 125 540 124C480 123 420 187 360 211C300 235 240 219 180 222C120 225 60 247 30 258L0 269Z" fill="#0064f9"></path><path d="M0 397L30 396C60 395 120 393 180 373C240 353 300 315 360 291C420 267 480 257 540 278C600 299 660 351 720 350C780 349 840 295 870 268L900 241L900 233L870 261C840 289 780 345 720 340C660 335 600 269 540 245C480 221 420 239 360 261C300 283 240 309 180 327C120 345 60 355 30 360L0 365Z" fill="#126bff"></path><path d="M0 439L30 432C60 425 120 411 180 391C240 371 300 345 360 324C420 303 480 287 540 303C600 319 660 367 720 367C780 367 840 319 870 295L900 271L900 239L870 266C840 293 780 347 720 348C660 349 600 297 540 276C480 255 420 265 360 289C300 313 240 351 180 371C120 391 60 393 30 394L0 395Z" fill="#2874ff"></path><path d="M0 475L30 467C60 459 120 443 180 422C240 401 300 375 360 369C420 363 480 377 540 393C600 409 660 427 720 416C780 405 840 365 870 345L900 325L900 269L870 293C840 317 780 365 720 365C660 365 600 317 540 301C480 285 420 301 360 322C300 343 240 369 180 389C120 409 60 423 30 430L0 437Z" fill="#387dff"></path><path d="M0 517L30 508C60 499 120 481 180 466C240 451 300 439 360 434C420 429 480 431 540 440C600 449 660 465 720 462C780 459 840 437 870 426L900 415L900 323L870 343C840 363 780 403 720 414C660 425 600 407 540 391C480 375 420 361 360 367C300 373 240 399 180 420C120 441 60 457 30 465L0 473Z" fill="#4686ff"></path><path d="M0 565L30 555C60 545 120 525 180 505C240 485 300 465 360 457C420 449 480 453 540 464C600 475 660 493 720 486C780 479 840 447 870 431L900 415L900 413L870 424C840 435 780 457 720 460C660 463 600 447 540 438C480 429 420 427 360 432C300 437 240 449 180 464C120 479 60 497 30 506L0 515Z" fill="#548fff"></path><path d="M0 601L30 601C60 601 120 601 180 601C240 601 300 601 360 601C420 601 480 601 540 601C600 601 660 601 720 601C780 601 840 601 870 601L900 601L900 413L870 429C840 445 780 477 720 484C660 491 600 473 540 462C480 451 420 447 360 455C300 463 240 483 180 503C120 523 60 543 30 553L0 563Z" fill="#6198ff"></path></svg>