<svg id="visual" viewBox="0 0 900 600" width="900" height="600" xmlns="http://www.w3.org/2000/svg" xmlns:xlink="http://www.w3.org/1999/xlink" version="1.1"><path d="M0 145L13.7 131C27.3 117 54.7 89 82 75C109.3 61 136.7 61 163.8 67C191 73 218 85 245.2 89C272.3 93 299.7 89 327 89C354.3 89 381.7 93 409 95C436.3 97 463.7 97 491 89C518.3 81 545.7 65 573 68C600.3 71 627.7 93 654.8 107C682 121 709 127 736.2 125C763.3 123 790.7 113 818 104C845.3 95 872.7 87 886.3 83L900 79L900 0L886.3 0C872.7 0 845.3 0 818 0C790.7 0 763.3 0 736.2 0C709 0 682 0 654.8 0C627.7 0 600.3 0 573 0C545.7 0 518.3 0 491 0C463.7 0 436.3 0 409 0C381.7 0 354.3 0 327 0C299.7 0 272.3 0 245.2 0C218 0 191 0 163.8 0C136.7 0 109.3 0 82 0C54.7 0 27.3 0 13.7 0L0 0Z" fill="#004cbb"></path><path d="M0 331L13.7 327C27.3 323 54.7 315 82 301C109.3 287 136.7 267 163.8 246C191 225 218 203 245.2 214C272.3 225 299.7 269 327 286C354.3 303 381.7 293 409 287C436.3 281 463.7 279 491 266C518.3 253 545.7 229 573 234C600.3 239 627.7 273 654.8 292C682 311 709 315 736.2 298C763.3 281 790.7 243 818 236C845.3 229 872.7 253 886.3 265L900 277L900 77L886.3 81C872.7 85 845.3 93 818 102C790.7 111 763.3 121 736.2 123C709 125 682 119 654.8 105C627.7 91 600.3 69 573 66C545.7 63 518.3 79 491 87C463.7 95 436.3 95 409 93C381.7 91 354.3 87 327 87C299.7 87 272.3 91 245.2 87C218 83 191 71 163.8 65C136.7 59 109.3 59 82 73C54.7 87 27.3 115 13.7 129L0 143Z" fill="#0056d6"></path><path d="M0 391L13.7 386C27.3 381 54.7 371 82 353C109.3 335 136.7 309 163.8 290C191 271 218 259 245.2 278C272.3 297 299.7 347 327 364C354.3 381 381.7 365 409 351C436.3 337 463.7 325 491 310C518.3 295 545.7 277 573 286C600.3 295 627.7 331 654.8 354C682 377 709 387 736.2 370C763.3 353 790.7 309 818 299C845.3 289 872.7 313 886.3 325L900 337L900 275L886.3 263C872.7 251 845.3 227 818 234C790.7 241 763.3 279 736.2 296C709 313 682 309 654.8 290C627.7 271 600.3 237 573 232C545.7 227 518.3 251 491 264C463.7 277 436.3 279 409 285C381.7 291 354.3 301 327 284C299.7 267 272.3 223 245.2 212C218 201 191 223 163.8 244C136.7 265 109.3 285 82 299C54.7 313 27.3 321 13.7 325L0 329Z" fill="#0061f1"></path><path d="M0 481L13.7 479C27.3 477 54.7 473 82 466C109.3 459 136.7 449 163.8 451C191 453 218 467 245.2 474C272.3 481 299.7 481 327 472C354.3 463 381.7 445 409 441C436.3 437 463.7 447 491 448C518.3 449 545.7 441 573 438C600.3 435 627.7 437 654.8 445C682 453 709 467 736.2 467C763.3 467 790.7 453 818 446C845.3 439 872.7 439 886.3 439L900 439L900 335L886.3 323C872.7 311 845.3 287 818 297C790.7 307 763.3 351 736.2 368C709 385 682 375 654.8 352C627.7 329 600.3 293 573 284C545.7 275 518.3 293 491 308C463.7 323 436.3 335 409 349C381.7 363 354.3 379 327 362C299.7 345 272.3 295 245.2 276C218 257 191 269 163.8 288C136.7 307 109.3 333 82 351C54.7 369 27.3 379 13.7 384L0 389Z" fill="#2071ff"></path><path d="M0 517L13.7 525C27.3 533 54.7 549 82 547C109.3 545 136.7 525 163.8 525C191 525 218 545 245.2 546C272.3 547 299.7 529 327 522C354.3 515 381.7 519 409 522C436.3 525 463.7 527 491 526C518.3 525 545.7 521 573 524C600.3 527 627.7 537 654.8 542C682 547 709 547 736.2 548C763.3 549 790.7 551 818 546C845.3 541 872.7 529 886.3 523L900 517L900 437L886.3 437C872.7 437 845.3 437 818 444C790.7 451 763.3 465 736.2 465C709 465 682 451 654.8 443C627.7 435 600.3 433 573 436C545.7 439 518.3 447 491 446C463.7 445 436.3 435 409 439C381.7 443 354.3 461 327 470C299.7 479 272.3 479 245.2 472C218 465 191 451 163.8 449C136.7 447 109.3 457 82 464C54.7 471 27.3 475 13.7 477L0 479Z" fill="#4385ff"></path><path d="M0 601L13.7 601C27.3 601 54.7 601 82 601C109.3 601 136.7 601 163.8 601C191 601 218 601 245.2 601C272.3 601 299.7 601 327 601C354.3 601 381.7 601 409 601C436.3 601 463.7 601 491 601C518.3 601 545.7 601 573 601C600.3 601 627.7 601 654.8 601C682 601 709 601 736.2 601C763.3 601 790.7 601 818 601C845.3 601 872.7 601 886.3 601L900 601L900 515L886.3 521C872.7 527 845.3 539 818 544C790.7 549 763.3 547 736.2 546C709 545 682 545 654.8 540C627.7 535 600.3 525 573 522C545.7 519 518.3 523 491 524C463.7 525 436.3 523 409 520C381.7 517 354.3 513 327 520C299.7 527 272.3 545 245.2 544C218 543 191 523 163.8 523C136.7 523 109.3 543 82 545C54.7 547 27.3 531 13.7 523L0 515Z" fill="#6198ff"></path></svg>